<?xml version="1.0" encoding="UTF-8"?>
<svg version="1.1" xmlns="http://www.w3.org/2000/svg" width="174" height="241">
<path d="M0 0 C57.42 0 114.84 0 174 0 C174 79.53 174 159.06 174 241 C116.58 241 59.16 241 0 241 C0 161.47 0 81.94 0 0 Z " fill="#FBFBFB" transform="translate(0,0)"/>
<path d="M0 0 C11.22 0 22.44 0 34 0 C34 14.19 34 28.38 34 43 C46.06915305 33.61288096 53.08520299 24.05978455 56 9 C56.33 6.03 56.66 3.06 57 0 C67.56 0 78.12 0 89 0 C89 7.91182085 88.91770318 14.46209846 87.3125 22 C87.13243408 22.86230225 86.95236816 23.72460449 86.7668457 24.61303711 C82.76316428 42.8391084 72.41981706 60.05690402 57 71 C54.0625 72.375 54.0625 72.375 52 73 C52 73.66 52 74.32 52 75 C64.21 75 76.42 75 89 75 C89 85.89 89 96.78 89 108 C77.12 108.33 65.24 108.66 53 109 C56.63 111.64 60.26 114.28 64 117 C78.62544763 130.69748819 87.85430337 149.95030896 89 170 C89 173.96 89 177.92 89 182 C78.44 182 67.88 182 57 182 C56.649375 179.48375 56.29875 176.9675 55.9375 174.375 C54.12283178 163.17930959 50.18884611 154.04814428 42 146 C42 145.34 42 144.68 42 144 C41.1028125 143.566875 41.1028125 143.566875 40.1875 143.125 C38 142 38 142 35 140 C34.67 153.86 34.34 167.72 34 182 C22.78 182 11.56 182 0 182 C-0.495 161.21 -0.495 161.21 -1 140 C-15.47978637 153.03180774 -20.89197002 163.02773018 -23 182 C-33.23 182 -43.46 182 -54 182 C-54.70396097 159.47324911 -50.07815237 140.41167595 -35 123 C-34.37867187 122.18402344 -33.75734375 121.36804688 -33.1171875 120.52734375 C-30.89931078 117.87980456 -28.59223881 115.87512408 -25.875 113.75 C-25.00617187 113.06421875 -24.13734375 112.3784375 -23.2421875 111.671875 C-21 110 -21 110 -19 109 C-30.88 108.67 -42.76 108.34 -55 108 C-55 97.11 -55 86.22 -55 75 C-42.46 75 -29.92 75 -17 75 C-17 74.34 -17 73.68 -17 73 C-17.56460938 72.90332031 -18.12921875 72.80664062 -18.7109375 72.70703125 C-29.23091914 69.45768538 -38.16846448 57.27859206 -43.30078125 47.98828125 C-46.82709191 41.2576686 -50.07739254 34.37438479 -52 27 C-52.350625 25.7934375 -52.70125 24.586875 -53.0625 23.34375 C-54.21488989 18.7040626 -54.22487276 14.25500378 -54.125 9.5 C-54.08375 6.695 -54.0425 3.89 -54 1 C-43.77 1 -33.54 1 -23 1 C-22.34 4.96 -21.68 8.92 -21 13 C-17.21593177 26.10713489 -10.5547614 34.55619088 0 43 C0 28.81 0 14.62 0 0 Z " fill="#020202" transform="translate(69,12)"/>
<path d="M0 0 C11 0 11 0 14.69921875 3.61328125 C15.73407193 5.15435561 16.72979877 6.72233031 17.6875 8.3125 C18.21021484 9.09818359 18.73292969 9.88386719 19.27148438 10.69335938 C23 16.4351757 23 16.4351757 23 20 C23.66 20 24.32 20 25 20 C25 13.73 25 7.46 25 1 C28.3 1 31.6 1 35 1 C35 12.55 35 24.1 35 36 C24 36 24 36 21.31640625 33.8046875 C20.73761719 32.83789062 20.15882812 31.87109375 19.5625 30.875 C18.96566406 29.92367187 18.36882812 28.97234375 17.75390625 27.9921875 C17.17511719 27.00476563 16.59632812 26.01734375 16 25 C14.68 23.02 13.36 21.04 12 19 C11.67 24.94 11.34 30.88 11 37 C7.37 37 3.74 37 0 37 C0 24.79 0 12.58 0 0 Z " fill="#0A0A0A" transform="translate(107,197)"/>
<path d="M0 0 C3.96 0 7.92 0 12 0 C12.13551267 4.16776756 12.23438868 8.33108751 12.3125 12.5 C12.35439453 13.67304688 12.39628906 14.84609375 12.43945312 16.0546875 C12.54146434 23.31788621 12.09052622 28.546434 7 34 C3.07522956 37.32350089 -0.88900813 37.57988895 -5.875 37.5625 C-6.94355225 37.55887451 -6.94355225 37.55887451 -8.03369141 37.55517578 C-13.15313954 37.37498817 -16.24557422 36.52720039 -19.8359375 32.8984375 C-23.76159567 26.49618962 -23.23615017 19.88396136 -23.125 12.625 C-23.11597656 11.50738281 -23.10695313 10.38976562 -23.09765625 9.23828125 C-23.07418457 6.49209488 -23.03831655 3.74601937 -23 1 C-19.37 1 -15.74 1 -12 1 C-11.96261719 2.69769531 -11.92523438 4.39539063 -11.88671875 6.14453125 C-11.82107001 8.36721 -11.7546223 10.58986526 -11.6875 12.8125 C-11.66494141 13.93205078 -11.64238281 15.05160156 -11.61914062 16.20507812 C-11.58369141 17.27822266 -11.54824219 18.35136719 -11.51171875 19.45703125 C-11.48553467 20.44678955 -11.45935059 21.43654785 -11.43237305 22.45629883 C-11.1867554 25.02728141 -11.1867554 25.02728141 -9.66333008 26.86206055 C-7.903583 28.3218087 -7.903583 28.3218087 -4.875 27.75 C-2.12209159 27.29066476 -2.12209159 27.29066476 -1 26 C-0.84193469 24.07521187 -0.748865 22.1450079 -0.68359375 20.21484375 C-0.64169922 19.04501953 -0.59980469 17.87519531 -0.55664062 16.66992188 C-0.51732422 15.43822266 -0.47800781 14.20652344 -0.4375 12.9375 C-0.37272461 11.08415039 -0.37272461 11.08415039 -0.30664062 9.19335938 C-0.20015889 6.12905159 -0.09953935 3.06454115 0 0 Z " fill="#0A0A0A" transform="translate(54,197)"/>
<path d="M0 0 C11.55 0 23.1 0 35 0 C35 3.3 35 6.6 35 10 C31.04 10 27.08 10 23 10 C23 18.91 23 27.82 23 37 C19.37 37 15.74 37 12 37 C12 28.09 12 19.18 12 10 C8.04 10 4.08 10 0 10 C0 6.7 0 3.4 0 0 Z " fill="#101010" transform="translate(69,197)"/>
</svg>
